<svg width="24" height="24" viewBox="0 0 24 24" fill="none" xmlns="http://www.w3.org/2000/svg">
<path d="M0 9C0.109375 9 0.257812 9.00391 0.445312 9.01172C0.632812 9.01953 0.820312 9.02344 1.00781 9.02344H1.24219C1.3125 9.02344 1.375 9.01562 1.42969 9L22.5 5.25C22.5469 5.24219 22.6094 5.23828 22.6875 5.23828C22.7656 5.23828 22.8516 5.23438 22.9453 5.22656C23.1328 5.22656 23.3281 5.23047 23.5312 5.23828C23.7344 5.24609 23.8906 5.25 24 5.25V18.75H23.543C23.3477 18.75 23.1562 18.7539 22.9688 18.7617H22.6172C22.5156 18.7617 22.4336 18.7539 22.3711 18.7383L13.4297 17.1445C13.3516 17.5898 13.2031 18.0039 12.9844 18.3867C12.7656 18.7695 12.4883 19.0977 12.1523 19.3711C11.8164 19.6445 11.4492 19.8594 11.0508 20.0156C10.6523 20.1719 10.2188 20.25 9.75 20.25C9.23438 20.25 8.75 20.1523 8.29688 19.957C7.84375 19.7617 7.44531 19.4961 7.10156 19.1602C6.75781 18.8242 6.48828 18.4258 6.29297 17.9648C6.09766 17.5039 6 17.0156 6 16.5C6 16.2812 6.02344 16.0586 6.07031 15.832L1.42969 15C1.36719 14.9922 1.30078 14.9883 1.23047 14.9883C1.16016 14.9883 1.07812 14.9844 0.984375 14.9766C0.8125 14.9766 0.640625 14.9805 0.46875 14.9883C0.296875 14.9961 0.140625 15 0 15V9ZM9.75 18.75C10.0234 18.75 10.2852 18.7031 10.5352 18.6094C10.7852 18.5156 11.0078 18.3867 11.2031 18.2227C11.3984 18.0586 11.5625 17.8594 11.6953 17.625C11.8281 17.3906 11.918 17.1406 11.9648 16.875L7.53516 16.0898C7.51172 16.2305 7.5 16.3672 7.5 16.5C7.5 16.8125 7.55859 17.1055 7.67578 17.3789C7.79297 17.6523 7.95312 17.8906 8.15625 18.0938C8.35938 18.2969 8.59766 18.457 8.87109 18.5742C9.14453 18.6914 9.4375 18.75 9.75 18.75ZM22.5 6.76172L1.5 10.5V13.5C1.55469 13.5 1.59766 13.5039 1.62891 13.5117L22.5 17.2383V6.76172Z" fill="black"/>
</svg>
