<svg width="24" height="24" viewBox="0 0 24 24" fill="none" xmlns="http://www.w3.org/2000/svg">
<path d="M24 3V21H0V3H6.43359L7.93359 1.5H16.0664L17.5664 3H24ZM22.5 4.5H16.9336L15.4336 3H8.56641L7.06641 4.5H1.5V19.5H22.5V4.5ZM12 6C12.8281 6 13.6055 6.15625 14.332 6.46875C15.0586 6.78125 15.6953 7.20703 16.2422 7.74609C16.7891 8.28516 17.2188 8.92188 17.5312 9.65625C17.8438 10.3906 18 11.1719 18 12C18 12.8281 17.8438 13.6055 17.5312 14.332C17.2188 15.0586 16.793 15.6953 16.2539 16.2422C15.7148 16.7891 15.0781 17.2188 14.3438 17.5312C13.6094 17.8438 12.8281 18 12 18C11.1719 18 10.3945 17.8438 9.66797 17.5312C8.94141 17.2188 8.30469 16.793 7.75781 16.2539C7.21094 15.7148 6.78125 15.0781 6.46875 14.3438C6.15625 13.6094 6 12.8281 6 12C6 11.1719 6.15625 10.3945 6.46875 9.66797C6.78125 8.94141 7.20703 8.30469 7.74609 7.75781C8.28516 7.21094 8.92188 6.78125 9.65625 6.46875C10.3906 6.15625 11.1719 6 12 6ZM12 16.5C12.6172 16.5 13.1992 16.3828 13.7461 16.1484C14.293 15.9141 14.7695 15.5898 15.1758 15.1758C15.582 14.7617 15.9023 14.2852 16.1367 13.7461C16.3711 13.207 16.4922 12.625 16.5 12C16.5 11.3828 16.3828 10.8008 16.1484 10.2539C15.9141 9.70703 15.5898 9.23047 15.1758 8.82422C14.7617 8.41797 14.2852 8.09766 13.7461 7.86328C13.207 7.62891 12.625 7.50781 12 7.5C11.3828 7.5 10.8008 7.61719 10.2539 7.85156C9.70703 8.08594 9.23047 8.41016 8.82422 8.82422C8.41797 9.23828 8.09766 9.71484 7.86328 10.2539C7.62891 10.793 7.50781 11.375 7.5 12C7.5 12.6172 7.61719 13.1992 7.85156 13.7461C8.08594 14.293 8.41016 14.7695 8.82422 15.1758C9.23828 15.582 9.71484 15.9023 10.2539 16.1367C10.793 16.3711 11.375 16.4922 12 16.5ZM3.75 6C3.95312 6 4.12891 6.07422 4.27734 6.22266C4.42578 6.37109 4.5 6.54688 4.5 6.75C4.5 6.95312 4.42578 7.12891 4.27734 7.27734C4.12891 7.42578 3.95312 7.5 3.75 7.5C3.54688 7.5 3.37109 7.42578 3.22266 7.27734C3.07422 7.12891 3 6.95312 3 6.75C3 6.54688 3.07422 6.37109 3.22266 6.22266C3.37109 6.07422 3.54688 6 3.75 6Z" fill="black"/>
</svg>
