<svg width="24" height="24" viewBox="0 0 24 24" fill="none" xmlns="http://www.w3.org/2000/svg">
<path d="M12 24C11.0312 24 10.1016 23.875 9.21094 23.625C8.32031 23.375 7.48438 23.0234 6.70312 22.5703C5.92188 22.1172 5.21484 21.5703 4.58203 20.9297C3.94922 20.2891 3.40234 19.582 2.94141 18.8086C2.48047 18.0352 2.125 17.1992 1.875 16.3008C1.625 15.4023 1.5 14.4688 1.5 13.5C1.5 12.5312 1.625 11.6016 1.875 10.7109C2.125 9.82031 2.47656 8.98438 2.92969 8.20312C3.38281 7.42188 3.92969 6.71484 4.57031 6.08203C5.21094 5.44922 5.91797 4.90234 6.69141 4.44141C7.46484 3.98047 8.30078 3.625 9.19922 3.375C10.0977 3.125 11.0312 3 12 3C12.9688 3 13.8984 3.125 14.7891 3.375C15.6797 3.625 16.5156 3.97656 17.2969 4.42969C18.0781 4.88281 18.7852 5.42969 19.418 6.07031C20.0508 6.71094 20.5977 7.41797 21.0586 8.19141C21.5195 8.96484 21.875 9.80078 22.125 10.6992C22.375 11.5977 22.5 12.5312 22.5 13.5C22.5 14.4688 22.375 15.3984 22.125 16.2891C21.875 17.1797 21.5234 18.0156 21.0703 18.7969C20.6172 19.5781 20.0703 20.2852 19.4297 20.918C18.7891 21.5508 18.082 22.0977 17.3086 22.5586C16.5352 23.0195 15.6992 23.375 14.8008 23.625C13.9023 23.875 12.9688 24 12 24ZM12 4.5C10.7578 4.5 9.59375 4.73438 8.50781 5.20312C7.42188 5.67188 6.46875 6.31641 5.64844 7.13672C4.82812 7.95703 4.18359 8.91016 3.71484 9.99609C3.24609 11.082 3.00781 12.25 3 13.5C3 14.7422 3.23438 15.9062 3.70312 16.9922C4.17188 18.0781 4.81641 19.0312 5.63672 19.8516C6.45703 20.6719 7.41016 21.3164 8.49609 21.7852C9.58203 22.2539 10.75 22.4922 12 22.5C13.2422 22.5 14.4062 22.2656 15.4922 21.7969C16.5781 21.3281 17.5312 20.6836 18.3516 19.8633C19.1719 19.043 19.8164 18.0898 20.2852 17.0039C20.7539 15.918 20.9922 14.75 21 13.5C21 12.2578 20.7656 11.0938 20.2969 10.0078C19.8281 8.92188 19.1836 7.96875 18.3633 7.14844C17.543 6.32812 16.5898 5.68359 15.5039 5.21484C14.418 4.74609 13.25 4.50781 12 4.5ZM12 13.5V7.5H10.5V15H16.5V13.5H12Z" fill="black"/>
</svg>
