<svg width="24" height="24" viewBox="0 0 24 24" fill="none" xmlns="http://www.w3.org/2000/svg">
<path d="M21.4802 7.89766L21.4802 7.89766L21.4805 7.90187C21.5732 9.53613 21.5732 14.4639 21.4804 16.0981L21.4803 16.1011C21.4028 17.6471 21.0545 18.9376 19.9963 19.996L19.9957 19.9966C18.9377 21.0589 17.6482 21.4071 16.1036 21.4802L16.0994 21.4804C14.4656 21.5732 9.53445 21.5732 7.90058 21.4804L7.89761 21.4803C6.35263 21.4028 5.06619 21.0547 4.00307 19.9954C2.94101 18.9372 2.59291 17.6473 2.51977 16.1023L2.51979 16.1023L2.51955 16.0981C2.42682 14.4639 2.42682 9.53166 2.51955 7.89741L2.51956 7.89741L2.51971 7.89445C2.59726 6.34744 2.94143 5.05796 4.00307 4.00012C5.066 2.941 6.35659 2.59292 7.89642 2.51978L7.89642 2.5198L7.90058 2.51957C9.53445 2.42681 14.4656 2.42681 16.0994 2.51957L16.0994 2.51958L16.1024 2.51972C17.648 2.59724 18.9381 2.94554 19.9963 4.00398L19.9969 4.00459C21.059 5.06285 21.4071 6.3527 21.4802 7.89766ZM18.0622 20.2148L18.0638 20.2142C19.0564 19.816 19.8212 19.0518 20.2151 18.0617C20.5095 17.3218 20.6084 16.1344 20.6433 15.0152C20.6688 14.1983 20.6603 13.3649 20.6536 12.697C20.6509 12.4357 20.6486 12.1997 20.6486 12C20.6486 11.8003 20.6509 11.5643 20.6536 11.3031C20.6603 10.6356 20.6688 9.80292 20.6433 8.98643C20.6084 7.86755 20.5095 6.68063 20.2153 5.93878L20.2147 5.93719C19.8166 4.94441 19.0526 4.17943 18.0627 3.78541L18.0615 3.78492C17.3224 3.49325 16.1361 3.3942 15.017 3.35877C14.1941 3.33272 13.3551 3.34076 12.6849 3.34719C12.4294 3.34964 12.1984 3.35185 12.0022 3.35185C11.8025 3.35185 11.5666 3.34946 11.3055 3.34682C10.6381 3.34007 9.80563 3.33164 8.98932 3.35709C7.8707 3.39197 6.684 3.49097 5.94226 3.78521L5.94226 3.78521L5.94068 3.78585C4.94805 4.184 4.18326 4.94825 3.78935 5.93829L3.78887 5.93952C3.49727 6.67872 3.39825 7.86525 3.36283 8.98454C3.33678 9.80764 3.34483 10.6468 3.35125 11.3172C3.3537 11.5727 3.35591 11.8038 3.35591 12C3.35591 12.1998 3.35352 12.4357 3.35088 12.6969C3.34413 13.3644 3.3357 14.1971 3.36115 15.0136C3.39602 16.1324 3.495 17.3194 3.78916 18.0612L3.78979 18.0628C4.18783 19.0556 4.95189 19.8206 5.94178 20.2146L5.94301 20.2151C6.68209 20.5068 7.8684 20.6058 8.98743 20.6412C9.81036 20.6673 10.6494 20.6592 11.3196 20.6528C11.5751 20.6504 11.806 20.6481 12.0022 20.6481C12.2019 20.6481 12.4378 20.6505 12.699 20.6532C13.3663 20.6599 14.1988 20.6684 15.0151 20.6429C16.1338 20.608 17.3205 20.509 18.0622 20.2148ZM7.32563 12C7.32563 9.4101 9.41315 7.32225 12.0022 7.32225C14.5913 7.32225 16.6788 9.4101 16.6788 12C16.6788 14.5899 14.5913 16.6777 12.0022 16.6777C9.41315 16.6777 7.32563 14.5899 7.32563 12ZM8.21927 12C8.21927 14.0875 9.9202 15.7837 12.0022 15.7837C14.0843 15.7837 15.7852 14.0875 15.7852 12C15.7852 9.9129 14.0891 8.2163 12.0022 8.2163C9.91535 8.2163 8.21927 9.9129 8.21927 12ZM18.0843 6.6625C18.0843 7.07793 17.7514 7.40853 17.3385 7.40853C16.9234 7.40853 16.5928 7.07566 16.5928 6.6625C16.5928 6.25044 16.9268 5.91647 17.3385 5.91647C17.7503 5.91647 18.0843 6.25044 18.0843 6.6625Z" stroke="#2B2B2B" stroke-width="0.9"/>
</svg>
