<svg width="24" height="24" viewBox="0 0 24 24" fill="none" xmlns="http://www.w3.org/2000/svg">
<path d="M1.5 9V15H15V16.5H0V7.5H12.1055C12.2227 7.77344 12.3633 8.03516 12.5273 8.28516C12.6914 8.53516 12.8789 8.77344 13.0898 9H1.5ZM22.3945 7.5H24V16.5H19.5V15H22.5V9H21.4102C21.6133 8.77344 21.7969 8.53516 21.9609 8.28516C22.125 8.03516 22.2695 7.77344 22.3945 7.5ZM18 8.92969V21L17.25 22.5L16.5 21V8.92969C16.0625 8.83594 15.6602 8.67578 15.293 8.44922C14.9258 8.22266 14.6094 7.94922 14.3438 7.62891C14.0781 7.30859 13.8711 6.94141 13.7227 6.52734C13.5742 6.11328 13.5 5.6875 13.5 5.25C13.5 4.73438 13.5977 4.25 13.793 3.79688C13.9883 3.34375 14.2539 2.94531 14.5898 2.60156C14.9258 2.25781 15.3242 1.98828 15.7852 1.79297C16.2461 1.59766 16.7344 1.5 17.25 1.5C17.7656 1.5 18.25 1.59766 18.7031 1.79297C19.1562 1.98828 19.5508 2.25781 19.8867 2.60156C20.2227 2.94531 20.4922 3.34375 20.6953 3.79688C20.8984 4.25 21 4.73438 21 5.25C21 5.69531 20.9258 6.12109 20.7773 6.52734C20.6289 6.93359 20.4219 7.29688 20.1562 7.61719C19.8906 7.9375 19.5742 8.21484 19.207 8.44922C18.8398 8.68359 18.4375 8.84375 18 8.92969ZM19.5 5.25C19.5 4.9375 19.4414 4.64453 19.3242 4.37109C19.207 4.09766 19.0469 3.85938 18.8438 3.65625C18.6406 3.45312 18.4023 3.29297 18.1289 3.17578C17.8555 3.05859 17.5625 3 17.25 3C16.9375 3 16.6445 3.05859 16.3711 3.17578C16.0977 3.29297 15.8594 3.45312 15.6562 3.65625C15.4531 3.85938 15.293 4.09766 15.1758 4.37109C15.0586 4.64453 15 4.9375 15 5.25C15 5.5625 15.0586 5.85547 15.1758 6.12891C15.293 6.40234 15.4531 6.64062 15.6562 6.84375C15.8594 7.04688 16.0977 7.20703 16.3711 7.32422C16.6445 7.44141 16.9375 7.5 17.25 7.5C17.5625 7.5 17.8555 7.44141 18.1289 7.32422C18.4023 7.20703 18.6406 7.04688 18.8438 6.84375C19.0469 6.64062 19.207 6.40234 19.3242 6.12891C19.4414 5.85547 19.5 5.5625 19.5 5.25Z" fill="black"/>
</svg>
